<svg id="Layer_1" data-name="Layer 1" xmlns="http://www.w3.org/2000/svg" viewBox="0 0 852 852"><defs><style>.cls-1{fill:#222222;}.cls-2{fill:#73bd9c;}.cls-3{fill:#222222;}</style></defs><path class="cls-1" d="M534.09,965.91q0-423.66-.09-847.32c0-3.74.84-4.59,4.59-4.59q421.41.15,842.82,0c3.74,0,4.59.84,4.59,4.59q-.15,421.41,0,842.82c0,3.75-.84,4.59-4.59,4.59Q957.75,965.85,534.09,965.91Z" transform="translate(-534 -114)"/><path class="cls-2" d="M1096.46,435.91c24.16,0,48.32.09,72.47-.06,6.43,0,11.49,1.84,16.9,5.7,8.05,5.75,17.41,9.66,26.17,14.45,6.86,3.75,13.35,8.15,20,12.16,10.68,6.4,10.24,21.83,4.08,29.38-15.9,19.47-31.42,39.24-47.11,58.88l-121,151.38q-60.46,75.71-120.9,151.42a33.75,33.75,0,0,1-9.57,8.65c-7.09,4-14.22,4.23-21.29-.11-13.14-8.08-24.19-18.71-35.36-29.19a19,19,0,0,0-5.51-4.14c-10.54-4.48-14-11.7-11.15-22.79q17.58-67.3,35.21-134.58c1.89-7.22,1.91-7.21-5.31-7.21-42.48,0-85-.09-127.44.11a24,24,0,0,1-15.64-5.3c-18.73-14.59-35-31.72-51.36-48.84a10,10,0,0,0-3.84-3C682.62,608,679,595.2,687.77,584.1c13.64-17.23,27.45-34.32,41.18-51.47l118-147.35q57.74-72.12,115.46-144.23,7-8.78,14-17.59c8.91-11.32,17.3-12.45,28.56-3.69,2.44,1.9,5.39,2.55,8.1,3.77,13.25,6,25.41,13.87,37.87,21.23,8,4.7,11.11,14.31,8.54,24.17q-18.33,70.46-36.79,140.87c-1.89,7.24-3.6,14.53-5.77,21.68-1.15,3.81-.41,4.78,3.63,4.75,25.32-.16,50.64-.08,76-.08Z" transform="translate(-534 -114)"/><path class="cls-3" d="M927,861.93a19,19,0,0,1-8.4-3.06c-10.17-6.75-18.92-15.22-28-23.25-.95-.84-2.13-1.69-.45-3.17,9.84-8.63,16.9-19.63,25-29.72q62.7-78.08,125.08-156.41,63-78.81,125.95-157.63,8.88-11.12,17.81-22.21c2.3-2.86,4.63-5.69,5.26-9.48.36-2.16,1.34-2.68,3.42-1.52,11.2,6.23,22.69,11.95,33.39,19,6.66,4.42,8,11,3,17.46-9.58,12.37-19.46,24.51-29.23,36.73Q1138.79,605,1077.83,681.29l-120.67,151c-6.14,7.67-12.3,15.32-18.36,23.05A16.9,16.9,0,0,1,927,861.93Z" transform="translate(-534 -114)"/><path class="cls-3" d="M981.69,436.29c-6.83,0-13.66-.13-20.49.06-3.57.09-4.63-.68-3.61-4.54q20.83-79.06,41.39-158.2c3.4-13,6.81-26,10-39.12.64-2.68,1.55-2.33,3.32-1.45A323.8,323.8,0,0,1,1046,252.45c5.65,3.74,6,9.55,4.37,15.65Q1032,338.29,1013.7,408.47c-2.1,8-4.39,16-6.3,24.12-.67,2.83-1.88,3.74-4.73,3.66-7-.18-14-.06-21-.06Z" transform="translate(-534 -114)"/><path class="cls-3" d="M710,612.94H873c13,0,26,0,39-.11,3.28,0,4.34.48,3.32,4.15-3.7,13.28-7.06,26.65-10.42,40-.72,2.86-2,3.92-5.12,3.91q-67.92-.15-135.85,0a8.78,8.78,0,0,1-5.94-2,535.71,535.71,0,0,1-45.27-42.18A38.25,38.25,0,0,1,710,612.94Z" transform="translate(-534 -114)"/></svg>
